<svg width="54" height="45" viewBox="0 0 54 45" fill="none" xmlns="http://www.w3.org/2000/svg">
<g id="Frame 22">
<g id="drop box dropbox cloud storage">
<path id="Vector" d="M52.0598 23.8L42.7798 18L52.0598 12.2C52.3493 12.0206 52.5881 11.7703 52.7537 11.4728C52.9193 11.1753 53.0063 10.8405 53.0063 10.5C53.0063 10.1595 52.9193 9.82463 52.7537 9.52713C52.5881 9.22963 52.3493 8.97934 52.0598 8.79998L40.0598 1.29998C39.742 1.10131 39.3747 0.995972 38.9998 0.995972C38.625 0.995972 38.2577 1.10131 37.9398 1.29998L26.9998 8.13998L16.0598 1.29998C15.742 1.10131 15.3747 0.995972 14.9998 0.995972C14.625 0.995972 14.2577 1.10131 13.9398 1.29998L1.93984 8.79998C1.65042 8.97934 1.41159 9.22963 1.24596 9.52713C1.08034 9.82463 0.993408 10.1595 0.993408 10.5C0.993408 10.8405 1.08034 11.1753 1.24596 11.4728C1.41159 11.7703 1.65042 12.0206 1.93984 12.2L11.2198 18L1.93984 23.8C1.65042 23.9793 1.41159 24.2296 1.24596 24.5271C1.08034 24.8246 0.993408 25.1595 0.993408 25.5C0.993408 25.8405 1.08034 26.1753 1.24596 26.4728C1.41159 26.7703 1.65042 27.0206 1.93984 27.2L13.9398 34.7C14.2577 34.8986 14.625 35.004 14.9998 35.004C15.3747 35.004 15.742 34.8986 16.0598 34.7L26.9998 27.86L37.9398 34.7C38.2577 34.8986 38.625 35.004 38.9998 35.004C39.3747 35.004 39.742 34.8986 40.0598 34.7L52.0598 27.2C52.3493 27.0206 52.5881 26.7703 52.7537 26.4728C52.9193 26.1753 53.0063 25.8405 53.0063 25.5C53.0063 25.1595 52.9193 24.8246 52.7537 24.5271C52.5881 24.2296 52.3493 23.9793 52.0598 23.8ZM26.9998 23.14L18.7798 18L26.9998 12.86L35.2198 18L26.9998 23.14ZM38.9998 5.35998L47.2198 10.5L38.9998 15.64L30.7798 10.5L38.9998 5.35998ZM14.9998 5.35998L23.2198 10.5L14.9998 15.64L6.77984 10.5L14.9998 5.35998ZM14.9998 30.64L6.77984 25.5L14.9998 20.36L23.2198 25.5L14.9998 30.64ZM38.9998 30.64L30.7798 25.5L38.9998 20.36L47.2198 25.5L38.9998 30.64Z" fill="black"/>
<path id="Vector_2" d="M33.9802 36.48L27.0002 40.66L20.0202 36.48C19.569 36.2761 19.0582 36.2468 18.5867 36.3977C18.1152 36.5487 17.7164 36.8692 17.4675 37.2973C17.2187 37.7253 17.1374 38.2304 17.2395 38.7149C17.3416 39.1994 17.6198 39.6288 18.0202 39.92L26.0202 44.72C26.3243 44.8955 26.6691 44.9879 27.0202 44.9879C27.3713 44.9879 27.7162 44.8955 28.0202 44.72L36.0202 39.92C36.2752 39.8047 36.5032 39.6373 36.6894 39.4284C36.8757 39.2195 37.016 38.9738 37.1013 38.7073C37.1866 38.4408 37.2151 38.1593 37.1848 37.8811C37.1545 37.6029 37.0662 37.3342 36.9256 37.0922C36.7849 36.8503 36.595 36.6406 36.3682 36.4766C36.1414 36.3127 35.8828 36.1982 35.6089 36.1405C35.3351 36.0827 35.0522 36.0832 34.7785 36.1416C34.5049 36.2001 34.2465 36.3154 34.0202 36.48H33.9802Z" fill="black"/>
</g>
</g>
</svg>
