<svg width="18" height="19" viewBox="0 0 18 19" fill="none" xmlns="http://www.w3.org/2000/svg">
<g id="Frame 25">
<path id="Vector" d="M15.336 15.839H12.671V11.662C12.671 10.666 12.651 9.384 11.281 9.384C9.892 9.384 9.68 10.468 9.68 11.589V15.839H7.014V7.25H9.574V8.42H9.609C9.967 7.746 10.837 7.033 12.137 7.033C14.837 7.033 15.337 8.811 15.337 11.124L15.336 15.839ZM4.004 6.075C3.80056 6.07526 3.59906 6.03537 3.41106 5.95761C3.22307 5.87984 3.05227 5.76574 2.90846 5.62184C2.76465 5.47793 2.65065 5.30706 2.57301 5.11901C2.49537 4.93097 2.4556 4.72944 2.456 4.526C2.4562 4.21983 2.54718 3.9206 2.71744 3.66615C2.8877 3.41169 3.12959 3.21343 3.41253 3.09645C3.69547 2.97947 4.00674 2.94902 4.30698 3.00894C4.60722 3.06886 4.88296 3.21648 5.09931 3.43311C5.31566 3.64974 5.46291 3.92566 5.52245 4.22598C5.58199 4.5263 5.55113 4.83753 5.43378 5.12032C5.31644 5.4031 5.11787 5.64474 4.86319 5.81467C4.60851 5.9846 4.30917 6.0752 4.003 6.075H4.004ZM5.34 15.839H2.667V7.25H5.34V15.839ZM16.67 0.5H1.33C0.594 0.5 0 1.08 0 1.797V17.203C0 17.92 0.594 18.5 1.328 18.5H16.667C17.4 18.5 18 17.92 18 17.203V1.797C18 1.081 17.4 0.5 16.666 0.5H16.67Z" fill="black"/>
</g>
</svg>
