<svg width="60" height="48" viewBox="0 0 60 48" fill="none" xmlns="http://www.w3.org/2000/svg">
<g id="icons">
<g id="settings2">
<path id="Vector" d="M11.3334 21.3333H48.6667C54.5334 21.3333 59.3334 16.5333 59.3334 10.6667C59.3334 4.8 54.5334 0 48.6667 0H11.3334C5.46675 0 0.666748 4.8 0.666748 10.6667C0.666748 16.5333 5.46675 21.3333 11.3334 21.3333ZM11.3334 5.33333C14.2667 5.33333 16.6667 7.73333 16.6667 10.6667C16.6667 13.6 14.2667 16 11.3334 16C8.40008 16 6.00008 13.6 6.00008 10.6667C6.00008 7.73333 8.40008 5.33333 11.3334 5.33333Z" fill="black"/>
<path id="Vector_2" d="M48.6667 26.6667H11.3334C5.46675 26.6667 0.666748 31.4667 0.666748 37.3333C0.666748 43.2 5.46675 48 11.3334 48H48.6667C54.5334 48 59.3334 43.2 59.3334 37.3333C59.3334 31.4667 54.5334 26.6667 48.6667 26.6667ZM48.6667 42.6667C45.7334 42.6667 43.3334 40.2667 43.3334 37.3333C43.3334 34.4 45.7334 32 48.6667 32C51.6001 32 54.0001 34.4 54.0001 37.3333C54.0001 40.2667 51.6001 42.6667 48.6667 42.6667Z" fill="black"/>
</g>
</g>
</svg>
