<svg width="24" height="19" viewBox="0 0 24 19" fill="none" xmlns="http://www.w3.org/2000/svg">
<g id="Frame 23">
<path id="Vector" d="M23.25 2.63282C22.406 2.99955 21.513 3.24116 20.5992 3.35001C21.5595 2.78769 22.2817 1.89434 22.6303 0.837508C21.7224 1.36841 20.7307 1.74092 19.6978 1.93907C19.2629 1.48322 18.7397 1.12059 18.1603 0.873201C17.5808 0.625814 16.9571 0.498843 16.327 0.500008C13.7761 0.500008 11.7117 2.53438 11.7117 5.0422C11.7099 5.39102 11.7499 5.73881 11.8308 6.07813C10.0016 5.99238 8.2104 5.52575 6.57187 4.7081C4.93333 3.89044 3.48351 2.73977 2.31516 1.3297C1.90527 2.02069 1.6885 2.80909 1.6875 3.61251C1.6875 5.18751 2.50922 6.5797 3.75 7.39532C3.01487 7.37787 2.29481 7.18331 1.65094 6.82813V6.88438C1.65094 9.08751 3.24469 10.9203 5.35406 11.3375C4.9574 11.4432 4.54864 11.4968 4.13812 11.4969C3.84683 11.4974 3.5562 11.4691 3.27047 11.4125C3.85687 13.2172 5.56359 14.5297 7.58531 14.5672C5.94252 15.8333 3.9256 16.5175 1.85156 16.5125C1.48341 16.512 1.11561 16.49 0.75 16.4469C2.85993 17.7942 5.31255 18.5068 7.81594 18.5C16.3172 18.5 20.9616 11.5766 20.9616 5.57188C20.9616 5.37501 20.9564 5.17813 20.947 4.98595C21.8485 4.34472 22.6283 3.54787 23.25 2.63282Z" fill="black"/>
</g>
</svg>
